<?xml version="1.0" encoding="UTF-8" standalone="no"?> <svg width="64" height="64" viewBox="0 0 64 64" fill="none" xmlns="http://www.w3.org/2000/svg">
<path d="M61.4 35.1L39.2 26.4C39.8 25.4 40.1 24.3 40.1 23C40.1 20.3 38.6 18 36.3 16.8C36.9 16.2 37.6 15.6 38.4 15.3C39.8 14.8 41.3 14.9 42.6 15.5C43.1 15.7 43.7 15.5 43.9 15.1C44.1 14.6 43.9 14 43.5 13.8C41.7 12.9 39.6 12.8 37.7 13.5C36.3 14 35.1 14.9 34.2 16.2C33.8 16 33.4 16 33 16C29.7 16 27 18.3 26.2 21.3L15.4 17.1C15.2 17 14.9 17 14.7 17.1C7 20.3 2 27.7 2 36V60C2 60.6 2.4 61 3 61H61C61.6 61 62 60.6 62 60V36C62 35.6 61.7 35.2 61.4 35.1ZM13 44H8V41H13V44ZM8 52H13.2C13.7 53.7 15.1 54.9 16.8 55C16.9 55 16.9 55 17 55C18 55 19 54.6 19.8 53.9C20.3 53.4 20.7 52.7 20.9 52H60V55H17H8V52ZM60 44H33V41H60V44ZM21.3 44C21.6 43.4 22.2 43.1 22.8 43C23.4 43 23.9 43.1 24.3 43.5C24.4 43.6 24.6 43.8 24.7 44H21.3ZM15 19.1L26 23.4C26.2 27.1 29.3 30 33 30C34.9 30 36.6 29.2 37.9 28L55.7 35H35C32.8 35 31 36.8 31 39V45C31 45.7 30.6 46.4 30 46.7C29.6 46.9 28.8 47.2 27.8 46.6C27.3 46.4 27 45.8 27 45C27 43.9 26.5 42.8 25.7 42.1C24.9 41.3 23.8 41 22.6 41.1C20.6 41.3 19.1 43 19 45V45.1V51C19 51.6 18.8 52.1 18.4 52.5C18 52.9 17.5 53 16.9 53C15.9 52.9 15 52 15 50.8V38C15 36.3 13.7 35 12 35H4C4.4 28 8.6 21.9 15 19.1Z" fill="black"/>
<path d="M19.5 37H26.5C27.1 37 27.5 36.6 27.5 36C27.5 35.4 27.1 35 26.5 35H19.5C18.9 35 18.5 35.4 18.5 36C18.5 36.6 18.9 37 19.5 37Z" fill="black"/>
<path d="M17.5 26C18.0523 26 18.5 25.5523 18.5 25C18.5 24.4477 18.0523 24 17.5 24C16.9477 24 16.5 24.4477 16.5 25C16.5 25.5523 16.9477 26 17.5 26Z" fill="black"/>
<path d="M13 28C13.5523 28 14 27.5523 14 27C14 26.4477 13.5523 26 13 26C12.4477 26 12 26.4477 12 27C12 27.5523 12.4477 28 13 28Z" fill="black"/>
<path d="M22 30C22.5523 30 23 29.5523 23 29C23 28.4477 22.5523 28 22 28C21.4477 28 21 28.4477 21 29C21 29.5523 21.4477 30 22 30Z" fill="black"/>
<path d="M41 33C41.5523 33 42 32.5523 42 32C42 31.4477 41.5523 31 41 31C40.4477 31 40 31.4477 40 32C40 32.5523 40.4477 33 41 33Z" fill="black"/>
<path d="M27 32C27.5523 32 28 31.5523 28 31C28 30.4477 27.5523 30 27 30C26.4477 30 26 30.4477 26 31C26 31.5523 26.4477 32 27 32Z" fill="black"/>
<path d="M16 32C16.5523 32 17 31.5523 17 31C17 30.4477 16.5523 30 16 30C15.4477 30 15 30.4477 15 31C15 31.5523 15.4477 32 16 32Z" fill="black"/>
<path d="M10 32C10.5523 32 11 31.5523 11 31C11 30.4477 10.5523 30 10 30C9.44772 30 9 30.4477 9 31C9 31.5523 9.44772 32 10 32Z" fill="black"/>
</svg>
