<?xml version="1.0" encoding="UTF-8" standalone="no"?> <svg xmlns="http://www.w3.org/2000/svg" viewBox="0 0 64 64"><g id="Layer_17" data-name="Layer 17"><path d="M60,16.23H57.33l-1.74-3.68V8.35a1,1,0,0,0-1-1H50.65a1,1,0,0,0-.9.57l-1.83,3.87H32.16a1,1,0,0,0-.9.57l-1.83,3.87H26.76a1,1,0,0,0-1,1v4.44a1,1,0,0,0,1,1h2.36l.41,6.65c.17.17.33.32.49.5,5.29-.6,10.13,4.46,9.13,9.72h0c0,.29-.12.59-.2.89a5.48,5.48,0,0,1,3.32,7.77c2.44,6.06-2.4,7.78-7.18,4.6-1.61.31-3.43,0-4.2-1.49l.21,3.34H4a1,1,0,1,0,0,2h54.6a1,1,0,0,0,0-2h-3l2-32H60a1,1,0,0,0,1-1V17.23A1,1,0,0,0,60,16.23ZM51.29,9.35h2.3v2.44H50.13Zm-18.5,4.44H54l1.16,2.44H31.64ZM59,20.67H27.76V18.23H59Z"/><path d="M20.82,47.1a3.28,3.28,0,0,0,4.29,0h0c3.76-3.08,7.23-11.48,3.7-15.65h0a7.52,7.52,0,0,0-11.68,0C13.59,35.63,17.06,44,20.82,47.1Z"/><path d="M39.65,43a3.63,3.63,0,0,0-1.35-.7c-1.14,2.76-3.3,6-5.87,7.64,1.07,2.69,7.2-.94,7.89-2.34A3.42,3.42,0,0,0,39.65,43Z"/><path d="M5.92,48.05c.87,1.14,6.5,4.53,7.58,1.91-2.58-1.64-4.73-4.88-5.87-7.64a3.51,3.51,0,0,0-2,5.28A3.31,3.31,0,0,0,5.92,48.05Z"/><path d="M9.2,40.84C10.39,44.14,15,51.63,18.82,48,15,44,12.1,36.79,14.55,31.82A6.51,6.51,0,0,0,9.2,40.84Z"/><path d="M8.14,51.94a12.55,12.55,0,0,1-3-1.87C4.51,52.56,5.84,52.77,8.14,51.94Z"/><path d="M40.65,52.09c.28-.29.35-1,.12-2a12.55,12.55,0,0,1-3,1.87C39,52.42,40.24,52.53,40.65,52.09Z"/><path d="M28.85,49c3.74.09,6.59-4.91,7.88-8.14a6.52,6.52,0,0,0-5.35-9c2.45,5-.4,12.2-4.26,16.22A3.13,3.13,0,0,0,28.85,49Z"/></g></svg>