<?xml version="1.0" encoding="utf-8"?>
<!-- Generator: Adobe Illustrator 24.1.1, SVG Export Plug-In . SVG Version: 6.00 Build 0)  -->
<svg version="1.1" id="Layer_1" xmlns="http://www.w3.org/2000/svg" xmlns:xlink="http://www.w3.org/1999/xlink" x="0px" y="0px"
	 viewBox="0 0 163.167 134.0399" enable-background="new 0 0 163.167 134.0399" xml:space="preserve">
<g>
	<path d="M149.1277,117.7298h-12.6085v13.5578c0,1.5201,1.2322,2.7523,2.7523,2.7523h16.0046c1.52,0,2.7523-1.2322,2.7523-2.7523
		v-17.493C155.8196,116.2294,152.6427,117.7298,149.1277,117.7298z"/>
	<path d="M5.1385,113.795v17.4926c0,1.5201,1.2322,2.7523,2.7523,2.7523h16.0046c1.52,0,2.7523-1.2322,2.7523-2.7523v-13.5578
		H14.0389C10.5241,117.7298,7.3474,116.2296,5.1385,113.795z"/>
	<path d="M8.2824,51.7222c-1.8304,1.4079-2.9321,3.5595-3.0671,5.8647L3.2569,91.0199c-0.0756,1.2908-0.0097,2.586,0.1965,3.8625
		l1.9731,12.2144c0.6827,4.2265,4.3314,7.3331,8.6127,7.3331h67.5443h67.5443c4.2813,0,7.93-3.1066,8.6127-7.3331l1.9731-12.2144
		c0.2062-1.2765,0.2721-2.5717,0.1965-3.8625l-1.9584-33.4329c-0.135-2.3052-1.2367-4.4568-3.067-5.8647
		c-1.5091-1.1607-3.3506-2.9573-4.8502-5.4892h3.9697h6.6896c3.2976,0,3.2976-11.9913,0-11.9913h-12.1241h-3.6221
		c-4.299-9.4437-10.9099-21.8948-13.4926-25.8303c-0.6031-0.9189-2.5069-1.6628-5.237-2.2651l-0.8763-3.5291l-0.1753-0.7059
		c-0.3338-1.3443-1.7067-2.171-3.051-1.8372c-0.907,0.2252-1.5677,0.9271-1.806,1.7706c-0.1148,0.4065-0.1398,0.8433-0.0313,1.2805
		l0.5266,2.1207c-14.7262-1.884-39.2213-1.6232-39.2213-1.6232S57.0884,3.3617,42.3622,5.2457l0.5266-2.1207
		c0.1086-0.4372,0.0836-0.8739-0.0313-1.2805c-0.2382-0.8434-0.8989-1.5453-1.806-1.7706c-1.3443-0.3338-2.7172,0.4929-3.051,1.8372
		l-0.1753,0.7059l-0.8763,3.5291c-2.7301,0.6024-4.6339,1.3462-5.2369,2.2651c-2.5826,3.9355-9.1936,16.3866-13.4926,25.8303H14.597
		H2.4732c-3.2976,0-3.2976,11.9913,0,11.9913h6.6892h3.9701C11.6329,48.765,9.7914,50.5615,8.2824,51.7222z M43.7119,91.3536
		H15.4733v-2.3h28.2386V91.3536z M44.1729,72.4982c-0.6007,1.4902-2.0461,2.392-3.5605,2.3856l-20.0903-0.14
		c-4.2164-0.0294-7.6107-3.4713-7.5812-7.6877c0.0294-4.2164,3.4713-7.6107,7.6877-7.5813c0.981,0.0068,1.9419,0.2104,2.8011,0.5535
		l18.6339,7.5113C44.0153,68.3264,44.9597,70.5464,44.1729,72.4982z M100.494,106.0427c0,1.0944-0.8872,1.9816-1.9816,1.9816
		H64.6547c-1.0944,0-1.9816-0.8872-1.9816-1.9816v-5.0239c0-1.0944,0.8872-1.9816,1.9816-1.9816h33.8577
		c1.0944,0,1.9816,0.8872,1.9816,1.9816V106.0427z M147.6935,91.3536H119.455v-2.3h28.2385V91.3536z M145.4461,74.1903
		c-0.9099,0.3668-1.876,0.5439-2.8011,0.5535l-20.0903,0.14c-2.1043,0.0146-3.8221-1.6793-3.8368-3.7836
		c-0.0112-1.6067,0.9827-2.9905,2.3857-3.5605l18.6339-7.5113c3.9107-1.5764,8.3589,0.3159,9.9354,4.2266
		C151.2491,68.1657,149.3568,72.6139,145.4461,74.1903z M33.8309,14.5973c1.1458-2.0153,3.113-3.4329,5.3937-3.8484
		c6.3761-1.1619,19.5563-2.1387,39.243-2.1387c1.9131,0,3.0479,0.0117,3.0635,0.0117h0.1055c0.0156,0,1.1484-0.0117,3.0635-0.0117
		c19.6861,0,32.8661,0.9767,39.2422,2.1387c2.2806,0.4156,4.2478,1.8331,5.3936,3.8483
		c4.3724,7.6902,12.1174,22.9752,14.2099,29.3846l0.0079,0.0242c0.3587,1.0956-0.4576,2.2219-1.6105,2.2219H21.1936
		c-1.1381,0-1.9438-1.1117-1.5898-2.1932l0.0172-0.0524C21.7151,37.5704,29.4592,22.2866,33.8309,14.5973z"/>
	<rect x="72.5793" y="12.7463" width="18" height="5"/>
</g>
</svg>
