<?xml version="1.0" encoding="UTF-8" standalone="no"?> <svg width="64" height="64" viewBox="0 0 64 64" fill="none" xmlns="http://www.w3.org/2000/svg">
<path d="M32 3C24.3087 3 16.9325 6.05535 11.4939 11.4939C6.05535 16.9325 3 24.3087 3 32C4.59 70.47 59.41 70.46 61 32C61 24.3087 57.9447 16.9325 52.5061 11.4939C47.0675 6.05535 39.6913 3 32 3V3ZM36.46 53.46C37 42.87 44.46 34.39 53.84 33.78C53.4432 38.4927 51.5383 42.952 48.4077 46.4969C45.2771 50.0418 41.0875 52.4835 36.46 53.46V53.46ZM10.16 33.78C19.51 34.39 27 42.87 27.54 53.46C22.9125 52.4835 18.7229 50.0418 15.5923 46.4969C12.4617 42.952 10.5568 38.4927 10.16 33.78V33.78ZM53.91 31.78C43.33 32.35 34.84 41.93 34.43 53.78C32.815 53.96 31.185 53.96 29.57 53.78C29.16 41.9 20.67 32.32 10.09 31.78C10.09 31.15 10.09 30.53 10.19 29.92H20.88C20.9599 30.1199 21.0605 30.3109 21.18 30.49L28.9 42.12C29.2393 42.6316 29.7 43.0512 30.2409 43.3415C30.7818 43.6318 31.3861 43.7837 32 43.7837C32.6139 43.7837 33.2182 43.6318 33.7591 43.3415C34.3 43.0512 34.7607 42.6316 35.1 42.12L42.82 30.46C42.9395 30.2809 43.0401 30.0899 43.12 29.89H53.81C53.87 30.5 53.9 31.12 53.91 31.75V31.78ZM32 10.08C37.0975 10.0865 42.0336 11.8677 45.9606 15.1177C49.8876 18.3677 52.5605 22.8837 53.52 27.89H43.39C43.265 27.0046 42.8253 26.1938 42.1513 25.6061C41.4773 25.0185 40.6142 24.6932 39.72 24.69H24.28C23.3858 24.6932 22.5227 25.0185 21.8487 25.6061C21.1747 26.1938 20.735 27.0046 20.61 27.89H10.48C11.4395 22.8837 14.1124 18.3677 18.0394 15.1177C21.9664 11.8677 26.9025 10.0865 32 10.08V10.08Z" fill="black"/>
</svg>
