<?xml version="1.0" encoding="UTF-8" standalone="no"?> <svg xmlns="http://www.w3.org/2000/svg" viewBox="0 0 64 64"><g id="Layer_30" data-name="Layer 30"><path d="M60,30.86H53.94a1,1,0,0,0-1,1v1.93H52l-1.06-5A6.46,6.46,0,0,0,44.64,24H36V10.93A2.91,2.91,0,0,0,33.06,8H26.27a3,3,0,0,0-3.38-2.55,3.48,3.48,0,0,0-6.65,0A3,3,0,0,0,12.86,8H6.07a2.91,2.91,0,0,0-2.91,2.91V46.68a3,3,0,0,0,3.49,2.91c-.1,1.72,0,6.49,0,8.16A3.26,3.26,0,0,0,9.86,61H15.4a3.26,3.26,0,0,0,3.25-3.25v-1h26.7v1A3.26,3.26,0,0,0,48.6,61h5.54a3.26,3.26,0,0,0,3.25-3.25v-2c0-.05,0-5.66,0-5.71s-.52-5.75-.5-5.81A7.16,7.16,0,0,0,53,38.46l-.56-2.67h.53v.9a1,1,0,0,0,1.17,1l6-1a1,1,0,0,0,.84-1V31.86A1,1,0,0,0,60,30.86ZM13.83,12.54H31.11V45.07H8V12.54Zm1-4.17a.9.9,0,0,1,.89-.9h1.36a1,1,0,0,0,1-1,1.49,1.49,0,1,1,3,0,1,1,0,0,0,1,1h1.37a.9.9,0,0,1,.88.9v2.17H14.83ZM5.16,46.68V10.93A.91.91,0,0,1,6.07,10h6.76v.52H7a1,1,0,0,0-1,1V46.07a1,1,0,0,0,1,1H32.11a1,1,0,0,0,1-1V11.54a1,1,0,0,0-1-1H26.3V10h6.76a.91.91,0,0,1,.91.91V46.68a.91.91,0,0,1-.91.91h-27A.91.91,0,0,1,5.16,46.68Zm20.53,8.09v-1.9H38.31v1.9ZM54.88,44.43l.51,5.69v7.63A1.25,1.25,0,0,1,54.14,59H48.6a1.25,1.25,0,0,1-1.25-1.25v-1h2.11a1,1,0,0,0,0-2H40.31v-2.9a1,1,0,0,0-1-1H24.69a1,1,0,0,0-1,1v2.9H14.54a1,1,0,0,0,0,2h2.11v1A1.25,1.25,0,0,1,15.4,59H9.86a1.25,1.25,0,0,1-1.25-1.25V50.12l.05-.53h24.4A2.91,2.91,0,0,0,36,46.68v-7H49.72A5.15,5.15,0,0,1,54.88,44.43ZM36,37.69V26h8.67A4.43,4.43,0,0,1,49,29.23l1.79,8.46H36Zm23-2.85-4.06.67V32.86H59Z"/><path d="M41.22,45.53c-.9,2,1.15,4.36,3.25,4.3H50.6a3.6,3.6,0,1,0-.4-7.19L43,44.1A2.43,2.43,0,0,0,41.22,45.53Zm1.83.8a.47.47,0,0,1,.32-.27l7.16-1.45c2,0,2,3.19.07,3.22H44.47a1.45,1.45,0,0,1-1.24-.7C43.08,46.9,42.9,46.61,43.05,46.33Z"/><path d="M10.09,20.14h4.22a1,1,0,0,0,1-1v-4a1,1,0,0,0-1-1H10.09a1,1,0,0,0-1,1v4A1,1,0,0,0,10.09,20.14Zm1-4h2.22v2H11.09Z"/><path d="M16.84,16.7h5.7a1,1,0,0,0,0-2h-5.7A1,1,0,0,0,16.84,16.7Z"/><path d="M16.84,19.26H29.41a1,1,0,0,0,0-2H16.84A1,1,0,0,0,16.84,19.26Z"/><path d="M10.09,28h4.22a1,1,0,0,0,1-1V23a1,1,0,0,0-1-1H10.09a1,1,0,0,0-1,1v4A1,1,0,0,0,10.09,28Zm1-4h2.22v2H11.09Z"/><path d="M16.84,24.55h5.7a1,1,0,0,0,0-2h-5.7A1,1,0,0,0,16.84,24.55Z"/><path d="M16.84,27.11H29.41a1,1,0,0,0,0-2H16.84A1,1,0,0,0,16.84,27.11Z"/><path d="M10.09,35.84h4.22a1,1,0,0,0,1-1v-4a1,1,0,0,0-1-1H10.09a1,1,0,0,0-1,1v4A1,1,0,0,0,10.09,35.84Zm1-4h2.22v2H11.09Z"/><path d="M16.84,32.4h5.7a1,1,0,0,0,0-2h-5.7A1,1,0,0,0,16.84,32.4Z"/><path d="M16.84,35H29.41a1,1,0,0,0,0-2H16.84A1,1,0,0,0,16.84,35Z"/><path d="M10.09,43.69h4.22a1,1,0,0,0,1-1v-4a1,1,0,0,0-1-1H10.09a1,1,0,0,0-1,1v4A1,1,0,0,0,10.09,43.69Zm1-4h2.22v2H11.09Z"/><path d="M16.84,40.25h5.7a1,1,0,0,0,0-2h-5.7A1,1,0,0,0,16.84,40.25Z"/><path d="M16.84,42.81H29.41a1,1,0,0,0,0-2H16.84A1,1,0,0,0,16.84,42.81Z"/></g></svg>