<?xml version="1.0" encoding="UTF-8" standalone="no"?> <svg width="64" height="64" viewBox="0 0 64 64" fill="none" xmlns="http://www.w3.org/2000/svg">
<path d="M15.88 32.2599H20.39C21.0503 32.2573 21.692 32.0405 22.2186 31.6419C22.7451 31.2434 23.1281 30.6848 23.31 30.0499L24.12 27.1899H15.23V31.6099C15.23 31.7823 15.2985 31.9477 15.4204 32.0696C15.5423 32.1915 15.7076 32.2599 15.88 32.2599V32.2599Z" fill="black"/>
<path d="M45.87 37.14C45.7267 37.14 45.5894 37.1969 45.4881 37.2982C45.3868 37.3994 45.33 37.5368 45.33 37.68C45.33 37.8232 45.3868 37.9606 45.4881 38.0619C45.5894 38.1631 45.7267 38.22 45.87 38.22H53.87C54.0132 38.22 54.1505 38.1631 54.2518 38.0619C54.3531 37.9606 54.41 37.8232 54.41 37.68C54.41 37.5368 54.3531 37.3994 54.2518 37.2982C54.1505 37.1969 54.0132 37.14 53.87 37.14H45.87Z" fill="black"/>
<path d="M25.8901 25.85C26.0434 26.0586 26.1474 26.2993 26.1942 26.5539C26.2409 26.8086 26.2293 27.0705 26.1601 27.32C25.7601 28.52 25.2601 31.32 24.3901 32.26H56.0001V15H30.8401C29.2484 15.0011 27.6748 15.3363 26.2209 15.984C24.767 16.6317 23.4653 17.5774 22.4001 18.76L16.5701 25.24H24.5701C24.8218 25.2356 25.0714 25.2882 25.2999 25.3938C25.5285 25.4994 25.7303 25.6554 25.8901 25.85V25.85ZM45.8901 24.69L42.4801 28.11C42.3871 28.2037 42.2765 28.2781 42.1546 28.3289C42.0328 28.3797 41.9021 28.4058 41.7701 28.4058C41.6381 28.4058 41.5073 28.3797 41.3855 28.3289C41.2636 28.2781 41.153 28.2037 41.0601 28.11C40.8738 27.9226 40.7693 27.6692 40.7693 27.405C40.7693 27.1408 40.8738 26.8874 41.0601 26.7L44.4801 23.28C44.6744 23.1509 44.9079 23.0938 45.1399 23.1187C45.3719 23.1436 45.5879 23.2488 45.7505 23.4162C45.9131 23.5835 46.0121 23.8025 46.0303 24.0351C46.0485 24.2677 45.9847 24.4994 45.8501 24.69H45.8901ZM37.0001 22.62L40.4201 19.2C40.6074 19.0137 40.8609 18.9092 41.1251 18.9092C41.3893 18.9092 41.6427 19.0137 41.8301 19.2C41.9238 19.293 41.9982 19.4036 42.049 19.5254C42.0997 19.6473 42.1259 19.778 42.1259 19.91C42.1259 20.042 42.0997 20.1727 42.049 20.2946C41.9982 20.4164 41.9238 20.527 41.8301 20.62L38.3601 24C38.1682 24.1118 37.9446 24.1565 37.7245 24.1271C37.5044 24.0978 37.3003 23.996 37.1445 23.8379C36.9886 23.6797 36.8898 23.4742 36.8637 23.2537C36.8375 23.0332 36.8855 22.8102 37.0001 22.62V22.62ZM36.6401 27L44.7601 18.88C44.9514 18.7162 45.1974 18.6306 45.4491 18.6403C45.7008 18.65 45.9395 18.7543 46.1176 18.9324C46.2957 19.1105 46.4001 19.3493 46.4098 19.6009C46.4195 19.8526 46.3339 20.0987 46.1701 20.29L38.0501 28.41C37.8588 28.5738 37.6127 28.6594 37.361 28.6497C37.1093 28.64 36.8706 28.5357 36.6925 28.3576C36.5144 28.1795 36.4101 27.9407 36.4004 27.6891C36.3906 27.4374 36.4762 27.1913 36.6401 27V27Z" fill="black"/>
<path d="M57.58 10H30.84C28.5475 10.0012 26.2807 10.4833 24.1862 11.4152C22.0916 12.347 20.2158 13.708 18.68 15.41L5.94001 29.52C4.04346 31.624 2.99575 34.3574 3.00001 37.19V44.25C3.00001 45.8 3.00001 49.06 3.00001 50.63C3.00001 51.537 3.36033 52.4069 4.00171 53.0483C4.64308 53.6897 5.51297 54.05 6.42001 54.05H57.58C58.4871 54.05 59.3569 53.6897 59.9983 53.0483C60.6397 52.4069 61 51.537 61 50.63C61 49.04 61 45.81 61 44.25V13.37C60.9869 12.4717 60.6208 11.6146 59.9808 10.984C59.3409 10.3534 58.4785 9.9999 57.58 10V10ZM13.23 26.29C13.2545 26.0473 13.3444 25.8157 13.49 25.62L20.92 17.37C22.1764 15.9889 23.7083 14.8864 25.4169 14.1337C27.1255 13.381 28.9729 12.9948 30.84 13H57C57.2652 13 57.5196 13.1054 57.7071 13.2929C57.8947 13.4804 58 13.7348 58 14V33.26C58 33.5252 57.8947 33.7796 57.7071 33.9671C57.5196 34.1546 57.2652 34.26 57 34.26H15.87C15.1689 34.2574 14.4975 33.977 14.0026 33.4803C13.5078 32.9836 13.23 32.3111 13.23 31.61V26.29ZM56.42 37.68C56.42 38.3537 56.1524 38.9997 55.6761 39.4761C55.1997 39.9524 54.5537 40.22 53.88 40.22H45.88C45.2064 40.22 44.5603 39.9524 44.084 39.4761C43.6076 38.9997 43.34 38.3537 43.34 37.68C43.34 37.0064 43.6076 36.3603 44.084 35.8839C44.5603 35.4076 45.2064 35.14 45.88 35.14H53.88C54.5537 35.14 55.1997 35.4076 55.6761 35.8839C56.1524 36.3603 56.42 37.0064 56.42 37.68V37.68ZM59 46H5.00001V45.21H59V46Z" fill="black"/>
</svg>
