<?xml version="1.0" encoding="UTF-8" standalone="no"?> <svg width="64" height="64" viewBox="0 0 64 64" fill="none" xmlns="http://www.w3.org/2000/svg">
<path d="M61 46.21V43.72C61 43.4547 60.8947 43.2004 60.7071 43.0129C60.5196 42.8253 60.2652 42.72 60 42.72H55.18C55.9034 42.4886 56.512 41.9914 56.8832 41.3289C57.2543 40.6663 57.3604 39.8877 57.18 39.15L56.75 37.39L55.54 32.39C55.5353 32.3601 55.5353 32.3298 55.54 32.3L53.86 27.3C53.5047 26.2308 52.8832 25.2696 52.054 24.5068C51.2248 23.7441 50.2151 23.2049 49.12 22.94L48.12 20.81L48.41 20.74L48.59 21.46C48.6237 21.6011 48.6877 21.7332 48.7775 21.8472C48.8673 21.9611 48.9809 22.0541 49.1103 22.1198C49.2397 22.1854 49.3818 22.2221 49.5268 22.2274C49.6718 22.2326 49.8163 22.2062 49.95 22.15L55 19.89C55.2185 19.7991 55.3978 19.6337 55.5058 19.4231C55.6138 19.2125 55.6437 18.9705 55.59 18.74L54.77 15.33C54.7395 15.2017 54.684 15.0808 54.6065 14.9741C54.5291 14.8674 54.4314 14.7771 54.3189 14.7083C54.2065 14.6396 54.0815 14.5937 53.9513 14.5734C53.8211 14.5531 53.6881 14.5587 53.56 14.59L48.17 15.89C46.83 16.27 47.69 17.84 47.83 18.73L47.13 18.9L45.13 14.71C44.4907 13.5533 43.4874 12.6401 42.2759 12.1121C41.0644 11.5841 39.7125 11.4709 38.43 11.79L16 17.19C14.7023 17.4892 13.5409 18.2118 12.699 19.2438C11.8572 20.2758 11.3826 21.5585 11.35 22.89L11.47 27.47L10.78 27.63L10.36 26C10.2983 25.7431 10.1374 25.5212 9.91261 25.3825C9.68778 25.2439 9.41723 25.1998 9.16003 25.26L3.77003 26.55C3.63909 26.5771 3.51493 26.6302 3.40488 26.7062C3.29484 26.7822 3.20115 26.8795 3.12936 26.9923C3.05757 27.1051 3.00913 27.2311 2.98692 27.363C2.9647 27.4949 2.96916 27.6299 3.00003 27.76L3.82003 31.17C3.87478 31.3918 4.00387 31.5883 4.18582 31.7265C4.36777 31.8648 4.59159 31.9366 4.82003 31.93L10.42 31.53C10.5646 31.5194 10.7052 31.4776 10.832 31.4074C10.9589 31.3371 11.0689 31.2401 11.1545 31.1231C11.2401 31.0061 11.2993 30.8719 11.3278 30.7297C11.3564 30.5876 11.3538 30.441 11.32 30.3L11.15 29.58L11.44 29.51L11.51 31.86C10.6595 32.5889 10.0079 33.5217 9.61616 34.5711C9.2244 35.6204 9.1053 36.752 9.27003 37.86C9.27003 37.92 10.03 43.09 10.07 43.14C10.11 43.19 11.29 48.2 11.28 48.23L11.77 50C11.9621 50.7875 12.4579 51.4672 13.1492 51.8906C13.8405 52.314 14.6712 52.4468 15.46 52.26L20.39 51.08C21.1776 50.8879 21.8572 50.3921 22.2806 49.7008C22.704 49.0095 22.8368 48.1788 22.65 47.39L22.46 46.6L27.75 45.33L46.06 41C46.1553 41.7197 46.4228 42.4058 46.84 43C46.7198 43.09 46.6214 43.206 46.5522 43.3393C46.4829 43.4726 46.4446 43.6198 46.44 43.77V46.26C46.44 46.5252 46.5454 46.7795 46.7329 46.9671C46.9205 47.1546 47.1748 47.26 47.44 47.26C47.51 47.4846 47.51 47.7253 47.44 47.95C47.1748 47.95 46.9205 48.0553 46.7329 48.2429C46.5454 48.4304 46.44 48.6847 46.44 48.95V51.2C46.44 51.4652 46.5454 51.7195 46.7329 51.9071C46.9205 52.0946 47.1748 52.2 47.44 52.2H60C60.2652 52.2 60.5196 52.0946 60.7071 51.9071C60.8947 51.7195 61 51.4652 61 51.2V48.88C61.0005 48.6248 60.9034 48.3792 60.7287 48.1932C60.5539 48.0073 60.3147 47.8953 60.06 47.88C59.99 47.6553 59.99 47.4146 60.06 47.19C60.3113 47.1749 60.5476 47.0656 60.7219 46.884C60.8961 46.7023 60.9954 46.4616 61 46.21ZM13.54 30.64L13.33 22.88C13.3653 22.0014 13.6891 21.159 14.2512 20.4829C14.8134 19.8069 15.5827 19.3349 16.44 19.14L38.94 13.74C39.7856 13.5221 40.6793 13.587 41.4846 13.9246C42.2899 14.2623 42.9626 14.8542 43.4 15.61L46.75 22.67L45.92 22.87L14.37 30.44L13.54 30.64ZM24.54 37.74C24.3976 38.3287 24.0969 38.8673 23.6703 39.2974C23.2437 39.7275 22.7076 40.0327 22.12 40.18C21.68 40.26 16.23 41.67 15.93 41.57C11.98 41.57 11.34 35.57 15.36 34.84H15.47L22.21 34.6C22.592 34.5953 22.9696 34.6811 23.312 34.8503C23.6544 35.0196 23.9519 35.2675 24.1801 35.5737C24.4083 35.88 24.5608 36.2359 24.6251 36.6124C24.6894 36.9889 24.6637 37.3753 24.55 37.74H24.54ZM33.67 41.88L28.25 43.18L27.88 41.66L39 39L39.37 40.53L33.67 41.88ZM43.88 35C40.95 35.8 38.17 31.78 41.26 30.06L47.38 27.21C48.2393 26.9514 49.1662 27.0447 49.9566 27.4695C50.7471 27.8943 51.3364 28.6157 51.595 29.475C51.8536 30.3343 51.7603 31.2611 51.3355 32.0516C50.9107 32.842 50.1893 33.4314 49.33 33.69L43.88 35ZM59 50.2H48.44V49.88H59V50.2ZM59 45.2H48.44V44.71H59V45.2Z" fill="black"/>
<path d="M22.2901 36.5899L15.6101 36.8299C13.9401 37.1899 14.6101 39.9199 16.2101 39.5399L21.6601 38.2299C21.9153 38.1664 22.1463 38.0292 22.3241 37.8354C22.5019 37.6416 22.6188 37.3997 22.6601 37.1399C22.6809 37.0702 22.6845 36.9965 22.6705 36.9251C22.6566 36.8537 22.6256 36.7867 22.5801 36.7299C22.556 36.6762 22.5137 36.6326 22.4606 36.607C22.4076 36.5814 22.3472 36.5753 22.2901 36.5899Z" fill="black"/>
<path d="M49.7601 30.0599C49.7224 29.8883 49.6508 29.7258 49.5496 29.5822C49.4483 29.4386 49.3194 29.3166 49.1704 29.2235C49.0213 29.1303 48.8552 29.0679 48.6817 29.0398C48.5082 29.0117 48.3309 29.0185 48.1601 29.0599L42.1001 31.8299C42.0539 31.855 42.0143 31.8908 41.9848 31.9343C41.9552 31.9778 41.9364 32.0277 41.9301 32.0799C41.8301 32.5899 42.7901 33.2099 43.4101 33.0099L48.8601 31.6999C49.0271 31.6516 49.1829 31.5709 49.3186 31.4622C49.4542 31.3536 49.5671 31.2192 49.6508 31.0669C49.7344 30.9145 49.7871 30.7471 49.8058 30.5743C49.8246 30.4015 49.8091 30.2267 49.7601 30.0599V30.0599Z" fill="black"/>
</svg>
