<?xml version="1.0" encoding="iso-8859-1"?>
<!-- Generator: Adobe Illustrator 21.0.0, SVG Export Plug-In . SVG Version: 6.00 Build 0)  -->
<svg version="1.1" id="Layer_1" xmlns="http://www.w3.org/2000/svg" xmlns:xlink="http://www.w3.org/1999/xlink" x="0px" y="0px"
	 viewBox="0 0 24 24" enable-background="new 0 0 24 24" xml:space="preserve">
<path fill="#303C42" d="M20.9287109,12.2431641l-2.6168213-4.3613892C18.4240723,7.7901001,18.5,7.656311,18.5,7.5v-4
	C18.5,3.2236328,18.2763672,3,18,3h-0.0705566c-0.1428833-0.6110229-0.5075684-1.1530151-1.0427246-1.5097656l-1.605957-1.0703125
	C14.8686523,0.1455078,14.3891602,0,13.8945313,0h-3.7890625C9.6108398,0,9.1313477,0.1455078,8.71875,0.4199219
	L7.1132813,1.4902344C6.578125,1.8469849,6.213501,2.3889771,6.0706177,3H6C5.7236328,3,5.5,3.2236328,5.5,3.5v4
	c0,0.156311,0.0759277,0.2901001,0.1881104,0.3817749l-2.6168213,4.3613892
	c-0.1420898,0.2363281-0.0654297,0.5439453,0.1713867,0.6855469c0.2368164,0.1435547,0.5444336,0.0654297,0.6860352-0.171875
	L6,9.3046875V15.5V16c-0.2763672,0-0.5,0.2236328-0.5,0.5v4C5.5,20.7763672,5.7236328,21,6,21h0.0505371
	C6.2957764,22.6916504,7.7415161,24,9.5,24h5c1.7584839,0,3.2042236-1.3083496,3.4494629-3H18c0.2763672,0,0.5-0.2236328,0.5-0.5v-4
	c0-0.2763672-0.2236328-0.5-0.5-0.5v-0.5V9.3046875l2.0712891,3.4521484
	c0.1416016,0.2373047,0.4492188,0.3154297,0.6860352,0.171875C20.9941406,12.7871094,21.0708008,12.4794922,20.9287109,12.2431641z
	 M8.4584961,5.4746094C8.6420898,5.1777344,8.9599609,5,9.309082,5h5.3818359c0.3491211,0,0.6669922,0.1777344,0.8505859,0.4746094
	s0.2001953,0.6601563,0.0439453,0.9726563l-1,2C14.4150391,8.7880859,14.0722656,9,13.690918,9H10.309082
	C9.9277344,9,9.5849609,8.7880859,9.4145508,8.4472656l-1-2C8.2583008,6.1347656,8.2749023,5.7714844,8.4584961,5.4746094z
	 M8,14.1914063l-1,0.4996948V8.7070313l1,1V14.1914063z M15.8535156,18.8535156C15.8066406,18.9003906,14.6762695,20,12,20
	s-3.8066406-1.0996094-3.8535156-1.1464844c-0.1523438-0.1523438-0.1899414-0.3847656-0.09375-0.5771484l1-2
	c0.1235352-0.2451172,0.4248047-0.3447266,0.6694336-0.2246094C9.730957,16.0566406,10.6494141,16.5,12,16.5
	c1.3662109,0,2.2675781-0.4423828,2.2763672-0.4472656c0.1191406-0.0595703,0.2548828-0.0673828,0.3818359-0.0273438
	c0.1254883,0.0419922,0.2294922,0.1328125,0.2890625,0.2509766l1,2C16.043457,18.46875,16.0058594,18.7011719,15.8535156,18.8535156
	z M17,14.6911011l-1-0.4996948v-4.484375l1-1V14.6911011z"/>
<g>
</g>
<g>
</g>
<g>
</g>
<g>
</g>
<g>
</g>
<g>
</g>
<g>
</g>
<g>
</g>
<g>
</g>
<g>
</g>
<g>
</g>
<g>
</g>
<g>
</g>
<g>
</g>
<g>
</g>
</svg>
