<?xml version="1.0" encoding="utf-8"?>
<!-- Generator: Adobe Illustrator 24.1.0, SVG Export Plug-In . SVG Version: 6.00 Build 0)  -->
<svg version="1.1" id="Layer_1" xmlns="http://www.w3.org/2000/svg" xmlns:xlink="http://www.w3.org/1999/xlink" x="0px" y="0px"
	 viewBox="0 0 48 48" style="enable-background:new 0 0 48 48;" xml:space="preserve">
<path d="M47.858,22.485l-6-10C41.677,12.184,41.351,12,41,12h-3v-1c0-1.654-1.346-3-3-3s-3,1.346-3,3v1h-3c-0.552,0-1,0.448-1,1
	v12.031c-0.57-0.765-1.347-1.358-2.254-1.699L8.707,6.293c-1.253-1.252-3.291-1.253-4.543,0c-1.188,1.188-1.27,3.053-0.19,4.337
	L5,11.857V18c-0.552,0-1,0.448-1,1s0.448,1,1,1c0,0.552,0.448,1,1,1c0.551,0,1,0.449,1,1s-0.449,1-1,1s-1-0.449-1-1
	c0-0.552-0.448-1-1-1s-1,0.448-1,1c0,1.654,1.346,3,3,3s3-1.346,3-3c0-0.986-0.479-1.861-1.215-2.408C7.911,19.424,8,19.226,8,19
	c0-0.552-0.448-1-1-1v-3.754L17.674,27H1c-0.552,0-1,0.448-1,1v9c0,0.552,0.448,1,1,1h3.09c0.478,2.833,2.942,5,5.91,5
	s5.431-2.167,5.91-5H32.09c0.478,2.833,2.942,5,5.91,5s5.431-2.167,5.91-5H47c0.552,0,1-0.448,1-1V23
	C48,22.819,47.951,22.641,47.858,22.485z M26.816,27h-5.631c0.414-1.161,1.514-2,2.816-2S26.402,25.839,26.816,27z M5.506,9.345
	C5.098,8.86,5.129,8.156,5.578,7.707c0.474-0.473,1.244-0.472,1.715,0L22.76,23.174c-1.49,0.384-2.715,1.426-3.328,2.81L5.506,9.345
	z M10,41c-2.206,0-4-1.794-4-4s1.794-4,4-4s4,1.794,4,4S12.206,41,10,41z M28,36H15.91c-0.478-2.833-2.942-5-5.91-5
	s-5.431,2.167-5.91,5H2v-7h26V36z M42.834,18l2.4,4H36v-4H42.834z M34,11c0-0.551,0.449-1,1-1s1,0.449,1,1v1h-2V11z M38,41
	c-2.206,0-4-1.794-4-4s1.794-4,4-4s4,1.794,4,4S40.206,41,38,41z M46,36h-2.09c-0.478-2.833-2.942-5-5.91-5s-5.431,2.167-5.91,5H30
	V14h10.434l1.2,2H35c-0.552,0-1,0.448-1,1v6c0,0.552,0.448,1,1,1h11V36z M10,34c-1.654,0-3,1.346-3,3s1.346,3,3,3s3-1.346,3-3
	S11.654,34,10,34z M10,38c-0.551,0-1-0.449-1-1s0.449-1,1-1s1,0.449,1,1S10.551,38,10,38z M38,34c-1.654,0-3,1.346-3,3s1.346,3,3,3
	s3-1.346,3-3S39.654,34,38,34z M38,38c-0.551,0-1-0.449-1-1s0.449-1,1-1s1,0.449,1,1S38.551,38,38,38z"/>
</svg>
