<?xml version="1.0" encoding="UTF-8"?>
<!DOCTYPE svg PUBLIC "-//W3C//DTD SVG 1.1//EN" "http://www.w3.org/Graphics/SVG/1.1/DTD/svg11.dtd">
<!-- Creator: CorelDRAW -->
<svg xmlns="http://www.w3.org/2000/svg" xml:space="preserve" width="1.70666in" height="1.70666in" version="1.1" style="shape-rendering:geometricPrecision; text-rendering:geometricPrecision; image-rendering:optimizeQuality; fill-rule:evenodd; clip-rule:evenodd"
viewBox="0 0 1706.66 1706.66"
 xmlns:xlink="http://www.w3.org/1999/xlink"
 xmlns:xodm="http://www.corel.com/coreldraw/odm/2003">
 <defs>
  <style type="text/css">
   <![CDATA[
    .fil0 {fill:black}
    .fil1 {fill:#4A5254}
    .fil3 {fill:#B3B3B3}
    .fil4 {fill:#FFB800}
    .fil2 {fill:white}
   ]]>
  </style>
 </defs>
 <g id="Layer_x0020_1">
  <metadata id="CorelCorpID_0Corel-Layer"/>
  <g id="_2615469957328">
   <path class="fil0" d="M651.01 1070.73l-367.37 -80.43c-203.8,-40.86 -168.35,-54.62 -225.33,-308.52l-57.82 -257.67c-1.5,-6.69 0.53,-13.68 5.38,-18.52l399.71 -399.71c4.85,-4.86 11.81,-6.89 18.52,-5.38l362.98 79.92c203.73,40.82 168.39,54.69 225.34,308.54l57.82 257.67c1.48,6.69 -0.53,13.68 -5.38,18.52l-399.71 399.73c-3.79,3.79 -8.89,5.85 -14.14,5.85zm-609.07 -644.64l77.7 353.11c35.22,175.48 24.02,137.2 278.06,194.16l246.94 55.43 384.16 -384.16 -77.7 -353.12c-35.18,-175.52 -24.17,-137.22 -278.06,-194.17l-246.94 -55.42 -384.17 384.16z"/>
   <path class="fil0" d="M257.91 772.29c-9.08,0 -17.04,-6.11 -19.34,-14.93l-82.51 -315.28c-1.79,-6.88 0.18,-14.18 5.2,-19.21l261.52 -261.53c5.02,-5.03 12.35,-7 19.21,-5.2l315.28 82.5c14.89,3.89 19.96,22.6 9.07,33.48l-494.3 494.3c-3.79,3.82 -8.9,5.88 -14.14,5.88zm-60.24 -329.26l70.78 270.45 444.98 -444.98 -270.45 -70.78 -245.3 245.3z"/>
   <path class="fil0" d="M794.56 1162.61c-5.12,0 -10.24,-1.96 -14.13,-5.86l-117.72 -117.72c-18.63,-18.63 9.66,-46.92 28.28,-28.29l103.59 103.58 319.76 -319.76 -103.58 -103.59c-18.64,-18.62 9.69,-46.91 28.29,-28.28l117.72 117.72c7.82,7.8 7.82,20.47 0,28.28l-348.05 348.05c-3.91,3.91 -9.01,5.86 -14.14,5.86z"/>
   <path class="fil0" d="M1466 1706.65c-5.29,0 -10.39,-2.1 -14.15,-5.87l-607.73 -607.74c-18.63,-18.63 9.66,-46.91 28.3,-28.29l601.49 601.5 183.76 -8.61 8.6 -183.74 -601.5 -601.5c-18.64,-18.64 9.69,-46.9 28.3,-28.28l607.74 607.74c3.98,3.98 6.09,9.46 5.83,15.08l-9.87 210.77c-0.49,10.31 -8.73,18.56 -19.04,19.04l-211.73 9.9z"/>
   <path class="fil0" d="M1678.02 1695.55c-5.11,0 -10.24,-1.96 -14.15,-5.86l-708.2 -708.19c-18.65,-18.65 9.7,-46.91 28.3,-28.29l708.2 708.19c12.66,12.66 3.49,34.15 -14.14,34.15z"/>
   <path class="fil0" d="M1251.73 1359.94c-17.64,0 -26.81,-21.5 -14.15,-34.16 28.95,-28.93 53.64,-65.39 73.64,-45.35 20,20.04 -16.33,44.62 -45.35,73.64 -3.91,3.91 -9.03,5.86 -14.14,5.86z"/>
   <path class="fil0" d="M1165.05 1182.57c-17.64,0 -26.81,-21.51 -14.15,-34.16 28.96,-28.93 53.64,-65.39 73.64,-45.35 20.02,20.06 -16.36,44.59 -45.35,73.64 -3.89,3.91 -9.02,5.87 -14.14,5.87z"/>
   <path class="fil0" d="M1429.08 1446.61c-17.64,0 -26.81,-21.5 -14.15,-34.16 28.96,-28.93 53.64,-65.39 73.64,-45.35 20,20.04 -16.33,44.62 -45.35,73.64 -3.91,3.91 -9.03,5.86 -14.14,5.86z"/>
   <path class="fil0" d="M1489.37 1597.59c-17.63,0 -26.81,-21.51 -14.15,-34.16 28.95,-28.93 53.64,-65.39 73.64,-45.35 19.99,20.04 -16.33,44.62 -45.35,73.64 -3.91,3.91 -9.03,5.86 -14.14,5.86z"/>
   <path class="fil0" d="M1014.06 1122.3c-17.64,0 -26.81,-21.5 -14.15,-34.15 28.96,-28.94 53.65,-65.41 73.65,-45.36 20.04,20.09 -16.39,44.56 -45.36,73.65 -3.89,3.92 -9.03,5.86 -14.14,5.86z"/>
   <path class="fil1" d="M644.64 1028.8l384.16 -384.16 -77.7 -353.12c-35.18,-175.52 -24.17,-137.22 -278.06,-194.17l-246.94 -55.42 -384.17 384.16 77.7 353.11c35.22,175.48 24.02,137.2 278.06,194.16l246.94 55.43zm121.7 -756.68l-494.3 494.3c-10.85,10.89 -29.57,5.91 -33.48,-9.05l-82.51 -315.28c-1.79,-6.88 0.18,-14.18 5.2,-19.21l261.52 -261.53c5.02,-5.03 12.35,-7 19.21,-5.2l315.28 82.5c14.89,3.89 19.96,22.6 9.07,33.48z"/>
   <polygon class="fil2" points="268.44,713.48 713.42,268.51 442.96,197.73 197.66,443.04 "/>
   <polygon class="fil3" points="1024.89,705.12 705.13,1024.89 794.57,1114.32 1114.33,794.57 "/>
   <path class="fil4" d="M1078.91 886.55l-80.8 80.8 166.6 166.6c23.06,-24.85 43.08,-47.66 59.82,-30.88 16.76,16.8 -6.01,36.72 -30.89,59.82l235.1 235.09c23.06,-24.84 43.08,-47.65 59.82,-30.87 16.74,16.78 -6,36.74 -30.87,59.83l201.34 201.34 7.22 -154.37 -587.35 -587.35z"/>
   <path class="fil4" d="M1060.2 1086.02c-11.72,11.71 -33.5,36.28 -46.13,36.28 -17.64,0 -26.81,-21.5 -14.15,-34.15 10.73,-10.72 20.87,-22.47 30.41,-32l-60.5 -60.5 -83.26 83.26 587.35 587.36 159.08 -7.45 -97.47 -97.47c-11.57,11.57 -33.52,36.26 -46.14,36.26 -17.63,0 -26.81,-21.51 -14.15,-34.16 10.72,-10.72 20.87,-22.47 30.4,-32l-207.76 -207.75c-11.56,11.56 -33.52,36.26 -46.14,36.26 -17.64,0 -26.81,-21.5 -14.15,-34.16 10.72,-10.72 20.86,-22.46 30.4,-31.99l-207.78 -207.78z"/>
  </g>
 </g>
</svg>
