<?xml version="1.0" encoding="UTF-8" standalone="no"?> <svg width="64" height="64" viewBox="0 0 64 64" fill="none" xmlns="http://www.w3.org/2000/svg">
<path d="M48 24C48 23.4696 47.7893 22.9609 47.4142 22.5858C47.0391 22.2107 46.5304 22 46 22H40C39.4696 22 38.9609 22.2107 38.5858 22.5858C38.2107 22.9609 38 23.4696 38 24V27.5C38.0014 27.8102 38.0743 28.116 38.213 28.3935C38.3518 28.671 38.5526 28.9127 38.8 29.1L41.8 31.349C42.1449 31.6116 42.5665 31.7538 43 31.7538C43.4335 31.7538 43.8551 31.6116 44.2 31.349L47.2 29.1C47.4476 28.913 47.6486 28.6712 47.7874 28.3937C47.9262 28.1162 47.9989 27.8103 48 27.5V24ZM46 27.5L43 29.75L40 27.5V24H46V27.5Z" fill="black"/>
<path d="M24 22H18C17.4696 22 16.9609 22.2107 16.5858 22.5858C16.2107 22.9609 16 23.4696 16 24V27.5C16.0007 27.8104 16.0733 28.1164 16.2121 28.394C16.3509 28.6716 16.5521 28.9132 16.8 29.1L19.8 31.349C20.1467 31.6074 20.5676 31.747 21 31.747C21.4324 31.747 21.8533 31.6074 22.2 31.349L25.2 29.099C25.4479 28.9122 25.6491 28.6706 25.7879 28.393C25.9267 28.1154 25.9993 27.8094 26 27.499V24C26 23.4696 25.7893 22.9609 25.4142 22.5858C25.0391 22.2107 24.5304 22 24 22ZM24 27.5L21 29.75L18 27.5V24H24V27.5Z" fill="black"/>
<path d="M62.25 57.77C62.25 57.76 62.25 57.76 62.24 57.76L61.55 53.83C61.5068 53.5696 61.412 53.3205 61.2711 53.0973C61.1303 52.874 60.9464 52.6812 60.73 52.53C60.4362 52.3217 60.0896 52.2004 59.73 52.18L53.38 11.38C53.2946 10.827 53.1153 10.2927 52.85 9.8C52.83 9.77 52.82 9.74 52.8 9.71C52.1581 8.5579 51.087 7.70607 49.82 7.34L45.52 6.11L42 2.58C41.625 2.20808 41.1181 1.99958 40.59 2H23.41C22.8822 2.00131 22.376 2.20955 22 2.58L18.48 6.11L14.18 7.34C12.913 7.70607 11.8419 8.5579 11.2 9.71C11.1825 9.738 11.1691 9.76829 11.16 9.8C10.8871 10.2902 10.7043 10.8253 10.62 11.38L4.27 52.17C3.82774 52.2029 3.40896 52.3818 3.0795 52.6787C2.75004 52.9756 2.5286 53.3735 2.45 53.81L1.76 57.75C1.66886 58.2723 1.78806 58.8094 2.09159 59.2441C2.39511 59.6787 2.8583 59.9757 3.38 60.07L13.23 61.81C13.3456 61.8299 13.4627 61.8399 13.58 61.84C14.0493 61.8381 14.5031 61.672 14.8629 61.3707C15.2227 61.0694 15.4658 60.6517 15.55 60.19L15.71 59.26L26.62 62.59C26.8116 62.646 27.0104 62.6729 27.21 62.67C27.6181 62.6707 28.0163 62.5449 28.35 62.31C28.6004 62.1405 28.8077 61.9147 28.9552 61.6508C29.1028 61.3869 29.1867 61.0921 29.2 60.79L29.37 58H34.64L34.81 60.79C34.8405 61.2976 35.0633 61.7746 35.4329 62.1238C35.8026 62.4731 36.2914 62.6684 36.8 62.67C36.9996 62.6729 37.1984 62.646 37.39 62.59L48.29 59.26L48.45 60.17C48.5299 60.6336 48.7698 61.0545 49.1279 61.3596C49.4859 61.6647 49.9396 61.8347 50.41 61.84C50.5312 61.8415 50.6521 61.8281 50.77 61.8L60.62 60.07C61.1388 59.9766 61.6003 59.6833 61.9051 59.2532C62.21 58.8231 62.3338 58.2905 62.25 57.77V57.77ZM52.43 18.31L57.75 52.46L50.26 53.77L52.43 18.31ZM23.41 4H40.58L43.84 7.26L40.45 16.6L36.34 14.55L39.9 7.45L38.1 6.55L37.29 8.2C33.8419 9.22998 30.1681 9.22998 26.72 8.2L25.9 6.55L24.1 7.45L27.66 14.55L23.56 16.61L20.16 7.26L23.41 4ZM11.56 18.32L13.74 53.77L6.25 52.45L11.56 18.32ZM13.58 59.84L3.73 58.1L4.42 54.16L14.27 55.9L13.58 59.84ZM27.21 60.67L16.06 57.28L16.24 56.25C16.2913 55.9619 16.2775 55.6661 16.1996 55.384C16.1218 55.102 15.9818 54.8409 15.79 54.62L13.09 10.48C13.4759 9.88867 14.0615 9.4557 14.74 9.26L18.38 8.22L21.68 17.29C21.7778 17.555 21.9297 17.7967 22.1259 17.9999C22.3222 18.203 22.5586 18.3631 22.82 18.47C23.0563 18.5606 23.3069 18.6081 23.56 18.61C23.8702 18.6108 24.1759 18.5353 24.45 18.39L28.1 16.57L29 30L27.21 60.67ZM29.48 56L31 30.06V29.93L30.25 18.78C31.3982 19.0733 32.6018 19.0733 33.75 18.78L33 29.93V30.06L34.53 56H29.48ZM34.11 14.55C34.0493 14.6684 34.0119 14.7974 34 14.93L33.89 16.63C32.6738 17.1 31.3262 17.1 30.11 16.63L30 14.93C29.9881 14.7974 29.9507 14.6684 29.89 14.55L27.91 10.58C29.2553 10.8599 30.6259 11.0006 32 11C33.3741 11.0001 34.7446 10.8594 36.09 10.58L34.11 14.55ZM48.21 54.61C48.0184 54.8311 47.8786 55.0922 47.8008 55.3741C47.723 55.6561 47.709 55.9519 47.76 56.24L47.94 57.28L36.8 60.67L35 30L35.9 16.57L39.55 18.39C39.8003 18.5188 40.0752 18.5925 40.3563 18.6063C40.6375 18.6201 40.9183 18.5736 41.18 18.47C41.4423 18.3645 41.6794 18.2049 41.8759 18.0016C42.0723 17.7983 42.2237 17.5558 42.32 17.29L45.62 8.22L49.26 9.26C49.9371 9.45843 50.5218 9.89076 50.91 10.48L48.21 54.61ZM50.42 59.83L49.73 55.9L59.58 54.17L60.28 58.1L50.42 59.83Z" fill="black"/>
</svg>
