<?xml version="1.0" encoding="UTF-8" standalone="no"?> <svg xmlns="http://www.w3.org/2000/svg" viewBox="0 0 64 64"><g id="Layer_21" data-name="Layer 21"><path d="M39.1,24.41,36,22.32v7.49h6.82V22.3l-3.19,2.11A.5.5,0,0,1,39.1,24.41Z"/><path d="M37.93,7.38A10.88,10.88,0,0,1,35,14.58a.51.51,0,0,1-.37.18c-.59-.08-1.21-1.14-1.58-1.39V59.5c5.8,0,9.94-1.18,12.24-3.61-.13-4.41-.29-12.13-.49-23.57-.29-6.2-.32-12.06-.08-17.4a.5.5,0,0,1,1,0c-.24,5.31-.21,11.14.08,17.32.6,6.86,1.07,13.19,1.43,18.9A25.38,25.38,0,0,1,53.53,51c.18-5.25.26-9.69.27-13.22-1.28-6.29-3.68-15.17-6.81-26C47,11,45.77,9.43,37.93,7.38Zm5.92,22.93a.5.5,0,0,1-.5.5H35.53a.5.5,0,0,1-.5-.5V21.38a.51.51,0,0,1,.46-.51h7.86a.5.5,0,0,1,.48.36h0a.26.26,0,0,1,0,.15Z"/><path d="M31.73,12.7V59.47h.34V12.7Z"/><polygon points="41.69 21.87 37.15 21.87 39.38 23.39 41.69 21.87"/><path d="M53.39,55c0-1,.08-2,.11-3a24.68,24.68,0,0,0-6.19.14q.12,1.83.21,3.57C51.21,56.09,52.76,55.56,53.39,55Z"/><path d="M28.94,13.35a13.42,13.42,0,0,0,1.46-1.2c-1.19-.77-2.09-2.92-2.8-6.61a4.45,4.45,0,0,0-.35.58c-.19.31-.61.34-.91.51A46,46,0,0,0,28.94,13.35Z"/><path d="M35.38,7.24c-1.94-.13-4.1-.2-6.43-.18.87,3.55,1.81,4.3,2.35,4.39a.53.53,0,0,1,.36.25h.76C34.4,10.36,35.38,8.88,35.38,7.24Z"/><path d="M36.34,6.63a.35.35,0,0,1,0,.18h0c.16,2-.84,3.86-3,5.43.31.31.72.72,1.24,1.26,1.76-2.29,2.53-4.52,2.29-6.65a5.26,5.26,0,0,0-.73-1.15A5,5,0,0,1,36.34,6.63Z"/><path d="M16.38,56.9c0-.89,0-1.93.1-3.13-2-.19-4.11-.3-6.25-.34q0,1.27.09,2.58c.26.18,1.21.58,4.75.82Z"/><path d="M28.73,6.06c2.24,0,4.57,0,6.53.17a6,6,0,0,0-.61-1.57,38.29,38.29,0,0,1-5.58-.16,1.89,1.89,0,0,0-.6.22C28.55,5.2,28.64,5.65,28.73,6.06Z"/><path d="M28.34,14.33A39.89,39.89,0,0,1,25.42,7c-3,1.3-5.61,2.59-7.85,3.84A51.18,51.18,0,0,0,15,19c-1.57,3.69-2.85,10.22-3.84,19.48h0v0a83.76,83.76,0,0,0-.9,13.93c2.16,0,4.28.15,6.32.34.27-4.67.91-11.43,1.91-20.13a110.86,110.86,0,0,0-.05-16.39.5.5,0,1,1,1-.07,110.67,110.67,0,0,1,0,16.58c.09,7.64-.05,15.29-.4,22.68,1.75,2.32,5.29,3.63,10.54,3.91l1.16.08V13.2a18,18,0,0,1-1.68,1.29A.49.49,0,0,1,28.34,14.33Z"/></g></svg>