<?xml version="1.0" encoding="UTF-8"?>
<svg id="Layer_1" data-name="Layer 1" xmlns="http://www.w3.org/2000/svg" viewBox="0 0 48 48">
  <path d="m32,20.682v-3.284c.927-1.008,3.751-4.353,3.985-7.927.033-.502-.133-.996-.467-1.389-.553-.651-2.368-3.052-2.509-6.633-.032-.812-.688-1.448-1.493-1.448h-3.049c-.758,0-1.398.581-1.487,1.351-.175,1.51-1.456,2.649-2.98,2.649s-2.805-1.139-2.98-2.649c-.089-.77-.729-1.351-1.487-1.351h-3.049c-.805,0-1.46.636-1.493,1.449-.141,3.583-1.957,5.984-2.51,6.634-.326.382-.493.867-.471,1.365.185,4.272,2.941,7.095,3.99,8.02v3.215c-1.181,1.688-7.419,11.07-7.995,21.765-.073,1.355.727,2.568,1.99,3.017,2.146.762,7.807,2.536,14.005,2.536s11.859-1.773,14.005-2.536c1.264-.449,2.063-1.662,1.99-3.017-.576-10.695-6.814-20.077-7.995-21.765Zm-14-.682v-2h12v2h-12Zm-3.997-10.62c.811-.954,2.673-3.533,2.959-7.38h2.138c.467,2.308,2.503,4,4.9,4s4.433-1.692,4.9-4h2.138c.286,3.833,2.136,6.409,2.949,7.369-.201,2.845-2.598,5.722-3.42,6.631h-13.205c-.781-.688-3.201-3.095-3.358-6.62Zm23.332,34.2c-2.048.728-7.448,2.42-13.335,2.42s-11.287-1.692-13.335-2.42c-.421-.15-.688-.562-.663-1.025.523-9.708,6.184-18.584,7.521-20.555h3.391c-.512,1.669-.975,3.878-1.382,6.602-.082.546.295,1.055.841,1.137.05.008.1.011.149.011.487,0,.914-.356.987-.852.44-2.938.956-5.3,1.506-6.898h1.966c.766,2.207,1.465,5.893,1.986,10.542.057.511.49.889.992.889.038,0,.075-.002.113-.006.549-.062.944-.556.882-1.105-.495-4.423-1.136-7.932-1.871-10.319h3.394c1.337,1.97,6.998,10.846,7.521,20.555.025.463-.242.875-.663,1.025Z"/>
</svg>