<?xml version="1.0" encoding="UTF-8" standalone="no"?> <svg xmlns="http://www.w3.org/2000/svg" viewBox="0 0 32 32"><title>Clothes Shop</title><g id="Boutique"><path d="M15.577,4.2a.667.667,0,0,1,.944.943.663.663,0,0,1-.472.2,1,1,0,0,0-1,1V8H13.918a3.3,3.3,0,0,1,.125.417,2,2,0,0,0,3.914,0A3,3,0,0,1,18.082,8H17.049V7.14a2.668,2.668,0,0,0,.886-4.359,2.731,2.731,0,0,0-3.772,0A1,1,0,0,0,15.577,4.2Z"/><path d="M27.764,10.764,22.87,8.316h0A3.014,3.014,0,0,0,21.528,8H20.9a1.013,1.013,0,0,0-.981.829,4,4,0,0,1-7.828,0A1.013,1.013,0,0,0,11.105,8h-.634a3,3,0,0,0-1.341.316L4.236,10.764a2,2,0,0,0-1.067,2.18l.69,3.448A2,2,0,0,0,5.82,18H8V28a2,2,0,0,0,2,2H22a2,2,0,0,0,2-2V18h2.18a2,2,0,0,0,1.961-1.608l.69-3.448A2,2,0,0,0,27.764,10.764Z"/></g></svg>