<?xml version="1.0" encoding="utf-8"?>
<!-- Generator: Adobe Illustrator 23.0.3, SVG Export Plug-In . SVG Version: 6.00 Build 0)  -->
<svg version="1.1" id="Icons" xmlns="http://www.w3.org/2000/svg" xmlns:xlink="http://www.w3.org/1999/xlink" x="0px" y="0px"
	 viewBox="0 0 32 32" style="enable-background:new 0 0 32 32;" xml:space="preserve">
<style type="text/css">
	.st0{fill:none;stroke:#000000;stroke-width:2;stroke-linecap:round;stroke-linejoin:round;stroke-miterlimit:10;}
</style>
<g>
	<path d="M26.2,20.7c-0.1-0.3-0.3-0.6-0.6-0.7c-0.3-0.1-0.7-0.1-0.9,0.1c-1.6,1.2-5,2-8.6,2s-7-0.8-8.6-2c-0.3-0.2-0.6-0.3-0.9-0.1
		c-0.3,0.1-0.6,0.4-0.6,0.7l-0.8,3C5,24,5,24.3,5.2,24.6S5.6,25,5.9,25c3.7,0.3,6.9,2.8,7.9,6.3c0.1,0.4,0.5,0.7,1,0.7h2.4
		c0.4,0,0.8-0.3,1-0.7c1-3.5,4.2-6,7.9-6.3c0.3,0,0.6-0.2,0.7-0.4S27,24,27,23.7L26.2,20.7z"/>
	<path d="M12.3,18c0.8,0,1.7-0.1,2.5-0.4l1.2-0.4l1.2,0.4c0.8,0.3,1.7,0.4,2.5,0.4c2.2,0,4.3-0.9,5.8-2.6c1.6-1.9,2-4.3,1-6.6
		c0,0,0-0.1-0.1-0.1l-2.3-3.7C24.1,5.1,24,5,24,5V1c0-0.6-0.4-1-1-1s-1,0.4-1,1v4.9c-1.4,3.2-3.4,6.2-6,8.9c-2.6-2.6-4.6-5.6-6-8.9
		V1c0-0.6-0.4-1-1-1S8,0.4,8,1v4c0,0-0.1,0.1-0.1,0.1L5.6,8.8c0,0,0,0.1-0.1,0.1c-1,2.2-0.7,4.7,1,6.6C8,17.1,10.1,18,12.3,18z"/>
</g>
</svg>
